<svg xmlns="http://www.w3.org/2000/svg" xml:space="preserve" width="407.4447" height="192.38174" viewBox="0 0 407.4447 192.38174"><defs><clipPath id="a" clipPathUnits="userSpaceOnUse"><path d="M0 127.559h425.197V0H0Z"/></clipPath></defs><g clip-path="url(#a)" transform="matrix(2.13033 0 0 -2.13033 -103.245 213.032)"><path d="M0 0c-3.212 1.504-5.845 2.717-5.845 5.168 0 1.875 1.501 3.238 4.461 3.238 1.092 0 1.984-.127 2.903-.296.482-.082 1-.154 1.423-.154 2.59 0 4.049 1.544 5.02 4.474l.401 1.195c-.412.167-4.641 2.026-10.155 2.026-8.775 0-13.408-5.623-13.404-11.464 0-2.947.922-5.077 2.365-6.758 1.863-2.163 4.512-3.578 6.994-4.786 3.613-1.774 6.877-3.088 6.877-5.715 0-2.332-2.41-3.659-5.633-3.659-4.416 0-8.274 2.522-8.765 2.829l-3.625-6.797c.642-.365 5.31-3.326 12.997-3.326 8.186.004 14.387 4.695 14.387 11.922C10.401-4.918 4.656-2.255 0 0" style="fill:#ea002c;fill-opacity:1;fill-rule:nonzero;stroke:none" transform="translate(65.447 33.718)"/><path d="m0 0 14.855 18.21H4.27L-7.575 2.496h-.178V18.21h-8.721l.002-38.575h.519c3.772 0 8.262 1.746 8.262 8.045v8.855h.172l12.076-16.42h11.1z" style="fill:#ea002c;fill-opacity:1;fill-rule:nonzero;stroke:none" transform="translate(97.469 30.365)"/><path d="M0 0c-3.067-.576-7.622-3.362-7.607-8.293.014-4.478 3.674-7.192 3.685-13.057.017-4.41-2.415-7.382-5.044-9.03a41.48 41.48 0 0 0 3.507.159c2.688.006 4.306-.252 4.407-.266l13.776 16.905A57.13 57.13 0 0 1 0 0" style="fill:#ea002c;fill-opacity:1;fill-rule:nonzero;stroke:none" transform="translate(112.813 89.894)"/><path d="M0 0c1.736 2.696 1.951 7.002 2.099 11.383.165 4.087 1.016 7.163 6.485 7.184 1.211.002 2.367-.164 4.456-.158 8.012.036 13.243 2.796 16.495 4.606-6.647 4.237-16.35 8.562-28.39 9.052-.784-2.213-6.886-19.174-7.344-20.545.068-.078 1.137-1.28 2.471-3.617C-1.76 4.701-.702 1.982 0 0" style="fill:#ea002c;fill-opacity:1;fill-rule:nonzero;stroke:none" transform="translate(124.392 44.245)"/><path d="M0 0c-.699-.005-1.047.463-1.142 1.263-.086.8-3.532 32.319-4.046 37.091-.072.695-.246 1.972-.251 2.429 0 .737.478 1.117 1.041 1.119 1.634.005 10.531-2.079 19.974-8.697-2.721-.766-7.642-3.596-7.623-9.453.022-5.183 3.732-8.039 3.753-13.24C11.737 2.051 2.012.007 0 0" style="fill:#ff7a00;fill-opacity:1;fill-rule:nonzero;stroke:none" transform="translate(95.294 58.097)"/><path d="M0 0c.15-.394.287-.722.427-.956.219-.367.504-.535.848-.531.22 0 .49.073.787.209.726.333 29.496 13.724 33.832 15.726.629.302 1.821.834 2.217 1.065.406.232.592.571.592.916 0 .195-.058.388-.165.566-.541.876-3.327 3.828-7.98 7.061-3.697-2.035-9.466-5.182-18.047-5.218-2.103-.003-2.58.141-4.012.132-4.193-.011-5.24-1.804-5.392-5.479-.027-.693-.037-1.627-.076-2.649C2.898 7.558 2.509 3.028 0 0" style="fill:#ff7a00;fill-opacity:1;fill-rule:nonzero;stroke:none" transform="translate(125.18 41.995)"/><path d="M0 0v3.257h-19.81V0h6.039l-6.996-18.398h4.806l6.202 16.47 5.517-15.133a2.162 2.162 0 0 1 1.906-1.34l3.47.003L-6.06 0Z" style="fill:#ff7a00;fill-opacity:1;fill-rule:nonzero;stroke:none" transform="translate(232.162 37.687)"/><path d="M0 0v-30.449h1.235a3.418 3.418 0 0 1 3.421 3.417V0Z" style="fill:#ff7a00;fill-opacity:1;fill-rule:nonzero;stroke:none" transform="translate(235.067 40.944)"/><path d="M0 0v-7.899h-10.839v-3.256H0v-19.294h1.237a3.422 3.422 0 0 1 3.42 3.42V0Z" style="fill:#ff7a00;fill-opacity:1;fill-rule:nonzero;stroke:none" transform="translate(201.215 40.944)"/><path d="M0 0h-4.654v-17.764a3.422 3.422 0 0 1 3.42-3.421h16.315v3.256H0Z" style="fill:#ff7a00;fill-opacity:1;fill-rule:nonzero;stroke:none" transform="translate(183.273 40.944)"/><path d="M0 0v-30.449h1.236a3.424 3.424 0 0 1 3.421 3.42V0Z" style="fill:#ff7a00;fill-opacity:1;fill-rule:nonzero;stroke:none" transform="translate(167.258 40.944)"/><path d="M0 0c-2.191 0-3.301 3.553-3.301 7.933s1.11 7.932 3.301 7.932c2.188 0 3.3-3.552 3.3-7.932C3.3 3.553 2.188 0 0 0m9.955 9.562h-2.04C7.458 14.968 4.701 19.118 0 19.118c-5.163 0-7.982-5.007-7.982-11.181C-7.982 1.756-5.163-3.251 0-3.251c4.7 0 7.458 4.15 7.915 9.558h2.04v-18.076h1.236a3.424 3.424 0 0 1 3.421 3.42v27.03H9.955Z" style="fill:#ff7a00;fill-opacity:1;fill-rule:nonzero;stroke:none" transform="translate(150.772 22.263)"/></g></svg>